# xmcd CD database file generated by freedbAccess_ocx
#
# Track frame offsets:
#       150
#       21663
#       45614
#       67606
#       88402
#       116350
#       129125
#       154623
#       174642
#       212762
#
# Disc length: 3006 seconds
#
# Revision: 0
# Processed by: cddbd v1.5.1PL0 Copyright (c) Steve Scherf et al.
# Submitted via: CDnGo 2.00
#
DISCID=7f0bbc0a
DTITLE=Pál Utcai Fiúk - Ha jön az álom
DYEAR=0090
DGENRE=Alt. Rock
TTITLE0=Régi évek
TTITLE1=Vér és szerelem
TTITLE2=Csak úgy csinál
TTITLE3=Tedd a dolgodat
TTITLE4=Nehéz idõk
TTITLE5=Utolsó év
TTITLE6=Nincs menedék
TTITLE7=Hideg napok
TTITLE8=Ha jön az álom
TTITLE9=Az idegen
EXTD=
EXTT0=
EXTT1=
EXTT2=
EXTT3=
EXTT4=
EXTT5=
EXTT6=
EXTT7=
EXTT8=
EXTT9=
PLAYORDER=
